<svg width="24" height="24" viewBox="0 0 24 24" fill="none" xmlns="http://www.w3.org/2000/svg">
<path d="M21.293 9.809C18.837 7.353 15.537 6 12 6C8.463 6 5.163 7.353 2.707 9.809L1.293 8.395C4.126 5.561 7.929 4.001 12 4C16.071 4 19.874 5.561 22.707 8.395L21.293 9.809Z" fill="black"/>
<path d="M7.743 15.721L6.329 14.307C9.403 11.233 14.597 11.233 17.671 14.307L16.257 15.721C13.95 13.414 10.05 13.414 7.743 15.721Z" fill="black"/>
<path d="M20.437 11.293C15.865 6.71899 8.136 6.71899 3.564 11.293L4.978 12.707C8.785 8.89999 15.216 8.89999 19.023 12.707L20.437 11.293Z" fill="black"/>
<path d="M12 20C13.1046 20 14 19.1046 14 18C14 16.8954 13.1046 16 12 16C10.8954 16 10 16.8954 10 18C10 19.1046 10.8954 20 12 20Z" fill="black"/>
</svg>
