<svg width="24" height="24" viewBox="0 0 24 24" fill="none" xmlns="http://www.w3.org/2000/svg">
<path d="M20.437 11.292C15.865 6.71899 8.136 6.71899 3.564 11.292L4.978 12.706C8.785 8.89899 15.216 8.89899 19.023 12.706L20.437 11.292Z" fill="black"/>
<path d="M17.671 14.307C16.184 12.819 14.17 12 12 12C9.83 12 7.816 12.819 6.329 14.307L7.743 15.721C8.853 14.611 10.364 13.999 12 13.999C13.636 14 15.147 14.611 16.257 15.721L17.671 14.307Z" fill="black"/>
<path d="M14 18C14 19.1046 13.1046 20 12 20C10.8954 20 10 19.1046 10 18C10 16.8954 10.8954 16 12 16C13.1046 16 14 16.8954 14 18Z" fill="black"/>
</svg>
