<svg width="48" height="48" viewBox="0 0 48 48" fill="none" xmlns="http://www.w3.org/2000/svg">
<path d="M0 34.5C0 34.1022 0.158035 33.7206 0.43934 33.4393C0.720644 33.158 1.10218 33 1.5 33H7.5C7.89782 33 8.27936 33.158 8.56066 33.4393C8.84196 33.7206 9 34.1022 9 34.5V40.5C9 40.8978 8.84196 41.2794 8.56066 41.5607C8.27936 41.842 7.89782 42 7.5 42H1.5C1.10218 42 0.720644 41.842 0.43934 41.5607C0.158035 41.2794 0 40.8978 0 40.5V34.5ZM12 25.5C12 25.1022 12.158 24.7206 12.4393 24.4393C12.7206 24.158 13.1022 24 13.5 24H19.5C19.8978 24 20.2794 24.158 20.5607 24.4393C20.842 24.7206 21 25.1022 21 25.5V40.5C21 40.8978 20.842 41.2794 20.5607 41.5607C20.2794 41.842 19.8978 42 19.5 42H13.5C13.1022 42 12.7206 41.842 12.4393 41.5607C12.158 41.2794 12 40.8978 12 40.5V25.5ZM24 40.5C24 40.1022 24.158 39.7206 24.4393 39.4393C24.7206 39.158 25.1022 39 25.5 39H31.5C31.8978 39 32.2794 39.158 32.5607 39.4393C32.842 39.7206 33 40.1022 33 40.5C33 40.8978 32.842 41.2794 32.5607 41.5607C32.2794 41.842 31.8978 42 31.5 42H25.5C25.1022 42 24.7206 41.842 24.4393 41.5607C24.158 41.2794 24 40.8978 24 40.5ZM36 40.5C36 40.1022 36.158 39.7206 36.4393 39.4393C36.7206 39.158 37.1022 39 37.5 39H43.5C43.8978 39 44.2794 39.158 44.5607 39.4393C44.842 39.7206 45 40.1022 45 40.5C45 40.8978 44.842 41.2794 44.5607 41.5607C44.2794 41.842 43.8978 42 43.5 42H37.5C37.1022 42 36.7206 41.842 36.4393 41.5607C36.158 41.2794 36 40.8978 36 40.5Z" fill="black"/>
</svg>
