<svg width="48" height="48" viewBox="0 0 48 48" fill="none" xmlns="http://www.w3.org/2000/svg">
<path d="M21.81 3.141C22.0906 2.84127 22.4298 2.60233 22.8065 2.43898C23.1832 2.27563 23.5894 2.19135 24 2.19135C24.4106 2.19135 24.8168 2.27563 25.1935 2.43898C25.5702 2.60233 25.9094 2.84127 26.19 3.141L45.225 23.451C47.025 25.365 45.663 28.5 43.035 28.5H34.5V31.5C34.5 32.2957 34.1839 33.0587 33.6213 33.6213C33.0587 34.1839 32.2957 34.5 31.5 34.5H16.5C15.7044 34.5 14.9413 34.1839 14.3787 33.6213C13.8161 33.0587 13.5 32.2957 13.5 31.5V28.5H4.962C2.34 28.5 0.978003 25.365 2.772 23.448L21.81 3.141ZM13.5 40.5C13.5 39.7044 13.8161 38.9413 14.3787 38.3787C14.9413 37.8161 15.7044 37.5 16.5 37.5H31.5C32.2957 37.5 33.0587 37.8161 33.6213 38.3787C34.1839 38.9413 34.5 39.7044 34.5 40.5V43.5C34.5 44.2957 34.1839 45.0587 33.6213 45.6213C33.0587 46.1839 32.2957 46.5 31.5 46.5H16.5C15.7044 46.5 14.9413 46.1839 14.3787 45.6213C13.8161 45.0587 13.5 44.2957 13.5 43.5V40.5Z" fill="black"/>
</svg>
