<svg width="48" height="48" viewBox="0 0 48 48" fill="none" xmlns="http://www.w3.org/2000/svg">
<g clip-path="url(#clip0_3_18)">
<path d="M27.849 12.006V36H23.913V16.014H23.718L18.216 19.968V16.155L23.913 12.006H27.849Z" fill="black"/>
<path d="M0 6C0 4.4087 0.632141 2.88258 1.75736 1.75736C2.88258 0.632141 4.4087 0 6 0L42 0C43.5913 0 45.1174 0.632141 46.2426 1.75736C47.3679 2.88258 48 4.4087 48 6V42C48 43.5913 47.3679 45.1174 46.2426 46.2426C45.1174 47.3679 43.5913 48 42 48H6C4.4087 48 2.88258 47.3679 1.75736 46.2426C0.632141 45.1174 0 43.5913 0 42V6ZM45 6C45 5.20435 44.6839 4.44129 44.1213 3.87868C43.5587 3.31607 42.7956 3 42 3H6C5.20435 3 4.44129 3.31607 3.87868 3.87868C3.31607 4.44129 3 5.20435 3 6V42C3 42.7956 3.31607 43.5587 3.87868 44.1213C4.44129 44.6839 5.20435 45 6 45H42C42.7956 45 43.5587 44.6839 44.1213 44.1213C44.6839 43.5587 45 42.7956 45 42V6Z" fill="black"/>
</g>
<defs>
<clipPath id="clip0_3_18">
<rect width="48" height="48" fill="white"/>
</clipPath>
</defs>
</svg>
