<svg width="48" height="48" viewBox="0 0 48 48" fill="none" xmlns="http://www.w3.org/2000/svg">
<g clip-path="url(#clip0_3_21)">
<path d="M6 0C4.4087 0 2.88258 0.632141 1.75736 1.75736C0.632141 2.88258 0 4.4087 0 6L0 42C0 43.5913 0.632141 45.1174 1.75736 46.2426C2.88258 47.3679 4.4087 48 6 48H42C43.5913 48 45.1174 47.3679 46.2426 46.2426C47.3679 45.1174 48 43.5913 48 42V6C48 4.4087 47.3679 2.88258 46.2426 1.75736C45.1174 0.632141 43.5913 0 42 0L6 0ZM27.849 12.006V36H23.913V16.014H23.718L18.216 19.968V16.155L23.913 12.006H27.849Z" fill="black"/>
</g>
<defs>
<clipPath id="clip0_3_21">
<rect width="48" height="48" fill="white"/>
</clipPath>
</defs>
</svg>
