<svg width="24" height="24" viewBox="0 0 24 24" fill="none" xmlns="http://www.w3.org/2000/svg">
<path d="M1.5 8.25469H5.88984L12 3.375V20.625L5.88984 15.7453H1.5V8.25469Z" fill="black"/>
<path d="M20.1322 4.09647L19.7287 3.46428L18.4643 4.27133L18.8678 4.90353C20.2137 7.01211 21 8.95676 21 12C21 15.0467 20.2115 17.0361 18.8718 19.0903L18.4621 19.7185L19.7185 20.5379L20.1282 19.9097C21.601 17.6514 22.5 15.3817 22.5 12C22.5 8.61481 21.5988 6.39414 20.1322 4.09647Z" fill="black"/>
<path d="M17.8977 6.37189L17.5196 5.72417L16.2242 6.4804L16.6023 7.12811C17.4932 8.65433 18 9.9211 18 12C18 14.0753 17.4713 15.3586 16.5996 16.8765L16.2261 17.5269L17.5269 18.2739L17.9004 17.6235C18.8549 15.9614 19.5 14.4191 19.5 12C19.5 9.58453 18.8818 8.05755 17.8977 6.37189Z" fill="black"/>
<path d="M15.6679 8.65887L15.3268 7.99094L13.9909 8.6732L14.3321 9.34113C14.7553 10.1698 15 11.0352 15 12C15 12.9472 14.7445 13.8382 14.3299 14.6632L13.9931 15.3333L15.3333 16.0069L15.6701 15.3368C16.1686 14.3449 16.5 13.2241 16.5 12C16.5 10.7636 16.1822 9.66585 15.6679 8.65887Z" fill="black"/>
</svg>
