<svg width="24" height="24" viewBox="0 0 24 24" fill="none" xmlns="http://www.w3.org/2000/svg">
<path d="M3 2.68933L20.5607 20.25L19.5 21.3107L1.93934 3.74999L3 2.68933Z" fill="black"/>
<path d="M22.5 12C22.5 8.51905 21.5536 6.32296 20.1323 4.0964L19.7288 3.46405L18.4631 4.27124L18.8667 4.90359C20.1478 6.90843 21 8.8828 21 12C21 14.2856 20.5594 15.9375 19.8366 17.4164L20.9475 18.5273C22.0388 16.4714 22.5 14.4844 22.5 12Z" fill="black"/>
<path d="M12 3.37499L8.55 6.1303L12 9.57984V3.37499Z" fill="black"/>
<path d="M1.5 8.25468V15.7453H5.88984L12 20.625V15.9201L4.33453 8.25468H1.5Z" fill="black"/>
<path d="M15.668 8.65921C16.2277 9.75562 16.5 10.8487 16.5 12C16.4986 12.6186 16.4149 13.2344 16.2511 13.8309L14.9705 12.5503C14.9899 12.3675 14.9997 12.1838 15 12C15 11.0916 14.7816 10.2216 14.332 9.33984L13.9912 8.67187L15.3281 7.99077L15.668 8.65921Z" fill="black"/>
<path d="M17.8978 6.37218C18.8869 8.06765 19.5 9.60046 19.5 12C19.5 13.7072 19.1808 14.985 18.6328 16.2112L17.4844 15.0623C17.8177 14.1661 18 13.2155 18 12C18 9.92952 17.4877 8.64562 16.6022 7.1278L16.2244 6.47999L17.52 5.72437L17.8978 6.37218Z" fill="black"/>
</svg>
