<svg width="24" height="24" viewBox="0 0 24 24" fill="none" xmlns="http://www.w3.org/2000/svg">
<path d="M3 8.25469H7.38984L13.5 3.375V20.625L7.38984 15.7453H3V8.25469Z" fill="black"/>
<path d="M19.3979 6.37221L19.0201 5.72431L17.7243 6.47988L18.1021 7.12779C18.9934 8.65642 19.5 9.91856 19.5 12C19.5 14.0777 18.9716 15.3545 18.0992 16.8772L17.7264 17.5279L19.0279 18.2736L19.4008 17.6228C20.3546 15.958 21 14.4223 21 12C21 9.58144 20.3816 8.0592 19.3979 6.37221Z" fill="black"/>
<path d="M17.1681 8.65915L16.8272 7.99108L15.4911 8.67278L15.8319 9.34085C16.2554 10.1709 16.5 11.034 16.5 12C16.5 12.9483 16.2447 13.8366 15.8297 14.6636L15.4933 15.334L16.834 16.0067L17.1703 15.3364C17.6685 14.3437 18 13.2258 18 12C18 10.7619 17.6821 9.66664 17.1681 8.65915Z" fill="black"/>
</svg>
